<mxfile host="app.diagrams.net" modified="2021-10-12T10:15:30.311Z" agent="5.0 (Macintosh; Intel Mac OS X 10_15_7) AppleWebKit/605.1.15 (KHTML, like Gecko) Version/15.0 Safari/605.1.15" etag="EoL7LaaaQTsQjHAj1E1U" version="15.4.3" type="github" pages="2">
  <diagram id="C5RBs43oDa-KdzZeNtuy" name="Page-1">
    <mxGraphModel dx="946" dy="637" grid="1" gridSize="10" guides="1" tooltips="1" connect="1" arrows="1" fold="1" page="1" pageScale="1" pageWidth="827" pageHeight="1169" math="0" shadow="0">
      <root>
        <mxCell id="WIyWlLk6GJQsqaUBKTNV-0" />
        <mxCell id="WIyWlLk6GJQsqaUBKTNV-1" parent="WIyWlLk6GJQsqaUBKTNV-0" />
        <mxCell id="yXsciE9tfuoRTuWKtd9Q-66" value="" style="rounded=0;whiteSpace=wrap;html=1;shadow=0;glass=0;labelBackgroundColor=#FFFFFF;sketch=0;" parent="WIyWlLk6GJQsqaUBKTNV-1" vertex="1">
          <mxGeometry x="95" y="395" width="130" height="75" as="geometry" />
        </mxCell>
        <mxCell id="yXsciE9tfuoRTuWKtd9Q-65" value="" style="rounded=0;whiteSpace=wrap;html=1;shadow=0;glass=0;labelBackgroundColor=#FFFFFF;sketch=0;" parent="WIyWlLk6GJQsqaUBKTNV-1" vertex="1">
          <mxGeometry x="100" y="250" width="125" height="70" as="geometry" />
        </mxCell>
        <mxCell id="yXsciE9tfuoRTuWKtd9Q-63" value="" style="rounded=0;whiteSpace=wrap;html=1;shadow=0;glass=0;labelBackgroundColor=#FFFFFF;sketch=0;" parent="WIyWlLk6GJQsqaUBKTNV-1" vertex="1">
          <mxGeometry x="40" y="45" width="90" height="50" as="geometry" />
        </mxCell>
        <mxCell id="yXsciE9tfuoRTuWKtd9Q-5" style="edgeStyle=orthogonalEdgeStyle;rounded=0;orthogonalLoop=1;jettySize=auto;html=1;entryX=0;entryY=0.5;entryDx=0;entryDy=0;endArrow=none;endFill=0;" parent="WIyWlLk6GJQsqaUBKTNV-1" source="yXsciE9tfuoRTuWKtd9Q-0" target="yXsciE9tfuoRTuWKtd9Q-4" edge="1">
          <mxGeometry relative="1" as="geometry" />
        </mxCell>
        <mxCell id="yXsciE9tfuoRTuWKtd9Q-0" value="Student" style="rounded=0;whiteSpace=wrap;html=1;" parent="WIyWlLk6GJQsqaUBKTNV-1" vertex="1">
          <mxGeometry x="110" y="255" width="100" height="60" as="geometry" />
        </mxCell>
        <mxCell id="yXsciE9tfuoRTuWKtd9Q-21" style="edgeStyle=orthogonalEdgeStyle;rounded=0;orthogonalLoop=1;jettySize=auto;html=1;entryX=0.5;entryY=0;entryDx=0;entryDy=0;endArrow=none;endFill=0;" parent="WIyWlLk6GJQsqaUBKTNV-1" source="yXsciE9tfuoRTuWKtd9Q-1" target="yXsciE9tfuoRTuWKtd9Q-16" edge="1">
          <mxGeometry relative="1" as="geometry" />
        </mxCell>
        <mxCell id="yXsciE9tfuoRTuWKtd9Q-1" value="Courses" style="rounded=0;whiteSpace=wrap;html=1;" parent="WIyWlLk6GJQsqaUBKTNV-1" vertex="1">
          <mxGeometry x="350" y="230" width="120" height="45" as="geometry" />
        </mxCell>
        <mxCell id="yXsciE9tfuoRTuWKtd9Q-13" style="edgeStyle=orthogonalEdgeStyle;rounded=0;orthogonalLoop=1;jettySize=auto;html=1;exitX=1;exitY=0.5;exitDx=0;exitDy=0;entryX=0;entryY=0.5;entryDx=0;entryDy=0;endArrow=none;endFill=0;" parent="WIyWlLk6GJQsqaUBKTNV-1" source="yXsciE9tfuoRTuWKtd9Q-2" target="yXsciE9tfuoRTuWKtd9Q-12" edge="1">
          <mxGeometry relative="1" as="geometry" />
        </mxCell>
        <mxCell id="yXsciE9tfuoRTuWKtd9Q-2" value="Instructors" style="rounded=0;whiteSpace=wrap;html=1;" parent="WIyWlLk6GJQsqaUBKTNV-1" vertex="1">
          <mxGeometry x="100" y="405" width="120" height="60" as="geometry" />
        </mxCell>
        <mxCell id="yXsciE9tfuoRTuWKtd9Q-20" style="edgeStyle=orthogonalEdgeStyle;rounded=0;orthogonalLoop=1;jettySize=auto;html=1;exitX=1;exitY=0.5;exitDx=0;exitDy=0;endArrow=none;endFill=0;entryX=0;entryY=0.25;entryDx=0;entryDy=0;" parent="WIyWlLk6GJQsqaUBKTNV-1" source="yXsciE9tfuoRTuWKtd9Q-4" target="yXsciE9tfuoRTuWKtd9Q-15" edge="1">
          <mxGeometry relative="1" as="geometry">
            <mxPoint x="420" y="365" as="targetPoint" />
          </mxGeometry>
        </mxCell>
        <mxCell id="yXsciE9tfuoRTuWKtd9Q-4" value="enroll" style="rhombus;whiteSpace=wrap;html=1;" parent="WIyWlLk6GJQsqaUBKTNV-1" vertex="1">
          <mxGeometry x="255" y="250" width="80" height="70" as="geometry" />
        </mxCell>
        <mxCell id="yXsciE9tfuoRTuWKtd9Q-19" style="edgeStyle=orthogonalEdgeStyle;rounded=0;orthogonalLoop=1;jettySize=auto;html=1;exitX=1;exitY=0.5;exitDx=0;exitDy=0;entryX=0;entryY=0.5;entryDx=0;entryDy=0;endArrow=none;endFill=0;" parent="WIyWlLk6GJQsqaUBKTNV-1" source="yXsciE9tfuoRTuWKtd9Q-12" target="yXsciE9tfuoRTuWKtd9Q-15" edge="1">
          <mxGeometry relative="1" as="geometry" />
        </mxCell>
        <mxCell id="yXsciE9tfuoRTuWKtd9Q-12" value="gives" style="rhombus;whiteSpace=wrap;html=1;" parent="WIyWlLk6GJQsqaUBKTNV-1" vertex="1">
          <mxGeometry x="260" y="395" width="80" height="80" as="geometry" />
        </mxCell>
        <mxCell id="yXsciE9tfuoRTuWKtd9Q-15" value="Sections" style="rounded=0;whiteSpace=wrap;html=1;" parent="WIyWlLk6GJQsqaUBKTNV-1" vertex="1">
          <mxGeometry x="380" y="360" width="65" height="50" as="geometry" />
        </mxCell>
        <mxCell id="yXsciE9tfuoRTuWKtd9Q-22" style="edgeStyle=orthogonalEdgeStyle;rounded=0;orthogonalLoop=1;jettySize=auto;html=1;exitX=0.5;exitY=1;exitDx=0;exitDy=0;entryX=0.5;entryY=0;entryDx=0;entryDy=0;endArrow=none;endFill=0;" parent="WIyWlLk6GJQsqaUBKTNV-1" source="yXsciE9tfuoRTuWKtd9Q-16" target="yXsciE9tfuoRTuWKtd9Q-15" edge="1">
          <mxGeometry relative="1" as="geometry" />
        </mxCell>
        <mxCell id="yXsciE9tfuoRTuWKtd9Q-16" value="have" style="rhombus;whiteSpace=wrap;html=1;" parent="WIyWlLk6GJQsqaUBKTNV-1" vertex="1">
          <mxGeometry x="372.5" y="290" width="80" height="45" as="geometry" />
        </mxCell>
        <mxCell id="yXsciE9tfuoRTuWKtd9Q-25" style="edgeStyle=orthogonalEdgeStyle;rounded=0;orthogonalLoop=1;jettySize=auto;html=1;exitX=0.5;exitY=1;exitDx=0;exitDy=0;entryX=0.5;entryY=0;entryDx=0;entryDy=0;endArrow=none;endFill=0;" parent="WIyWlLk6GJQsqaUBKTNV-1" source="yXsciE9tfuoRTuWKtd9Q-24" target="yXsciE9tfuoRTuWKtd9Q-0" edge="1">
          <mxGeometry relative="1" as="geometry" />
        </mxCell>
        <mxCell id="yXsciE9tfuoRTuWKtd9Q-24" value="name" style="ellipse;whiteSpace=wrap;html=1;" parent="WIyWlLk6GJQsqaUBKTNV-1" vertex="1">
          <mxGeometry x="127.5" y="190" width="65" height="40" as="geometry" />
        </mxCell>
        <mxCell id="yXsciE9tfuoRTuWKtd9Q-27" style="edgeStyle=orthogonalEdgeStyle;rounded=0;orthogonalLoop=1;jettySize=auto;html=1;entryX=0.5;entryY=0;entryDx=0;entryDy=0;endArrow=none;endFill=0;" parent="WIyWlLk6GJQsqaUBKTNV-1" source="yXsciE9tfuoRTuWKtd9Q-26" target="yXsciE9tfuoRTuWKtd9Q-1" edge="1">
          <mxGeometry relative="1" as="geometry" />
        </mxCell>
        <mxCell id="yXsciE9tfuoRTuWKtd9Q-26" value="&lt;u&gt;name&lt;/u&gt;" style="ellipse;whiteSpace=wrap;html=1;" parent="WIyWlLk6GJQsqaUBKTNV-1" vertex="1">
          <mxGeometry x="375" y="170" width="70" height="40" as="geometry" />
        </mxCell>
        <mxCell id="yXsciE9tfuoRTuWKtd9Q-31" style="edgeStyle=orthogonalEdgeStyle;rounded=0;orthogonalLoop=1;jettySize=auto;html=1;entryX=1;entryY=0.5;entryDx=0;entryDy=0;endArrow=none;endFill=0;" parent="WIyWlLk6GJQsqaUBKTNV-1" source="yXsciE9tfuoRTuWKtd9Q-28" target="yXsciE9tfuoRTuWKtd9Q-15" edge="1">
          <mxGeometry relative="1" as="geometry" />
        </mxCell>
        <mxCell id="yXsciE9tfuoRTuWKtd9Q-28" value="name" style="ellipse;whiteSpace=wrap;html=1;" parent="WIyWlLk6GJQsqaUBKTNV-1" vertex="1">
          <mxGeometry x="472.5" y="362.5" width="55" height="45" as="geometry" />
        </mxCell>
        <mxCell id="yXsciE9tfuoRTuWKtd9Q-49" style="edgeStyle=orthogonalEdgeStyle;rounded=0;orthogonalLoop=1;jettySize=auto;html=1;entryX=0.675;entryY=1.033;entryDx=0;entryDy=0;entryPerimeter=0;endArrow=none;endFill=0;" parent="WIyWlLk6GJQsqaUBKTNV-1" source="yXsciE9tfuoRTuWKtd9Q-34" target="yXsciE9tfuoRTuWKtd9Q-2" edge="1">
          <mxGeometry relative="1" as="geometry" />
        </mxCell>
        <mxCell id="yXsciE9tfuoRTuWKtd9Q-34" value="name" style="ellipse;whiteSpace=wrap;html=1;" parent="WIyWlLk6GJQsqaUBKTNV-1" vertex="1">
          <mxGeometry x="180" y="490" width="55" height="40" as="geometry" />
        </mxCell>
        <mxCell id="yXsciE9tfuoRTuWKtd9Q-37" style="edgeStyle=orthogonalEdgeStyle;rounded=0;orthogonalLoop=1;jettySize=auto;html=1;exitX=0.5;exitY=1;exitDx=0;exitDy=0;entryX=0;entryY=0;entryDx=0;entryDy=0;endArrow=none;endFill=0;" parent="WIyWlLk6GJQsqaUBKTNV-1" source="yXsciE9tfuoRTuWKtd9Q-36" target="yXsciE9tfuoRTuWKtd9Q-0" edge="1">
          <mxGeometry relative="1" as="geometry" />
        </mxCell>
        <mxCell id="yXsciE9tfuoRTuWKtd9Q-36" value="&lt;u&gt;id&lt;/u&gt;" style="ellipse;whiteSpace=wrap;html=1;" parent="WIyWlLk6GJQsqaUBKTNV-1" vertex="1">
          <mxGeometry x="50" y="190" width="70" height="40" as="geometry" />
        </mxCell>
        <mxCell id="yXsciE9tfuoRTuWKtd9Q-39" style="edgeStyle=orthogonalEdgeStyle;rounded=0;orthogonalLoop=1;jettySize=auto;html=1;exitX=0.5;exitY=0;exitDx=0;exitDy=0;entryX=0.342;entryY=1;entryDx=0;entryDy=0;entryPerimeter=0;endArrow=none;endFill=0;" parent="WIyWlLk6GJQsqaUBKTNV-1" source="yXsciE9tfuoRTuWKtd9Q-38" target="yXsciE9tfuoRTuWKtd9Q-2" edge="1">
          <mxGeometry relative="1" as="geometry" />
        </mxCell>
        <mxCell id="yXsciE9tfuoRTuWKtd9Q-38" value="&lt;u&gt;id&lt;/u&gt;" style="ellipse;whiteSpace=wrap;html=1;" parent="WIyWlLk6GJQsqaUBKTNV-1" vertex="1">
          <mxGeometry x="100" y="490" width="60" height="40" as="geometry" />
        </mxCell>
        <mxCell id="yXsciE9tfuoRTuWKtd9Q-48" style="edgeStyle=orthogonalEdgeStyle;rounded=0;orthogonalLoop=1;jettySize=auto;html=1;entryX=0;entryY=0.5;entryDx=0;entryDy=0;endArrow=none;endFill=0;" parent="WIyWlLk6GJQsqaUBKTNV-1" source="yXsciE9tfuoRTuWKtd9Q-40" target="yXsciE9tfuoRTuWKtd9Q-43" edge="1">
          <mxGeometry relative="1" as="geometry" />
        </mxCell>
        <mxCell id="yXsciE9tfuoRTuWKtd9Q-40" value="members" style="rounded=0;whiteSpace=wrap;html=1;" parent="WIyWlLk6GJQsqaUBKTNV-1" vertex="1">
          <mxGeometry x="24" y="655" width="70" height="40" as="geometry" />
        </mxCell>
        <mxCell id="yXsciE9tfuoRTuWKtd9Q-41" value="videos" style="rounded=0;whiteSpace=wrap;html=1;" parent="WIyWlLk6GJQsqaUBKTNV-1" vertex="1">
          <mxGeometry x="254" y="655" width="70" height="40" as="geometry" />
        </mxCell>
        <mxCell id="yXsciE9tfuoRTuWKtd9Q-46" style="edgeStyle=orthogonalEdgeStyle;rounded=0;orthogonalLoop=1;jettySize=auto;html=1;entryX=1;entryY=0.5;entryDx=0;entryDy=0;endArrow=none;endFill=0;" parent="WIyWlLk6GJQsqaUBKTNV-1" source="yXsciE9tfuoRTuWKtd9Q-42" target="yXsciE9tfuoRTuWKtd9Q-41" edge="1">
          <mxGeometry relative="1" as="geometry" />
        </mxCell>
        <mxCell id="yXsciE9tfuoRTuWKtd9Q-42" value="category" style="ellipse;whiteSpace=wrap;html=1;" parent="WIyWlLk6GJQsqaUBKTNV-1" vertex="1">
          <mxGeometry x="354" y="655" width="60" height="40" as="geometry" />
        </mxCell>
        <mxCell id="yXsciE9tfuoRTuWKtd9Q-45" style="edgeStyle=orthogonalEdgeStyle;rounded=0;orthogonalLoop=1;jettySize=auto;html=1;entryX=0;entryY=0.5;entryDx=0;entryDy=0;endArrow=none;endFill=0;" parent="WIyWlLk6GJQsqaUBKTNV-1" source="yXsciE9tfuoRTuWKtd9Q-43" target="yXsciE9tfuoRTuWKtd9Q-44" edge="1">
          <mxGeometry relative="1" as="geometry" />
        </mxCell>
        <mxCell id="yXsciE9tfuoRTuWKtd9Q-47" style="edgeStyle=orthogonalEdgeStyle;rounded=0;orthogonalLoop=1;jettySize=auto;html=1;entryX=0;entryY=0.5;entryDx=0;entryDy=0;endArrow=none;endFill=0;" parent="WIyWlLk6GJQsqaUBKTNV-1" source="yXsciE9tfuoRTuWKtd9Q-43" target="yXsciE9tfuoRTuWKtd9Q-41" edge="1">
          <mxGeometry relative="1" as="geometry" />
        </mxCell>
        <mxCell id="yXsciE9tfuoRTuWKtd9Q-43" value="Rent" style="rhombus;whiteSpace=wrap;html=1;" parent="WIyWlLk6GJQsqaUBKTNV-1" vertex="1">
          <mxGeometry x="144" y="650" width="60" height="50" as="geometry" />
        </mxCell>
        <mxCell id="yXsciE9tfuoRTuWKtd9Q-44" value="Payment" style="ellipse;whiteSpace=wrap;html=1;" parent="WIyWlLk6GJQsqaUBKTNV-1" vertex="1">
          <mxGeometry x="195" y="600" width="60" height="40" as="geometry" />
        </mxCell>
        <mxCell id="yXsciE9tfuoRTuWKtd9Q-52" style="edgeStyle=orthogonalEdgeStyle;rounded=0;orthogonalLoop=1;jettySize=auto;html=1;entryX=0.5;entryY=1;entryDx=0;entryDy=0;endArrow=none;endFill=0;" parent="WIyWlLk6GJQsqaUBKTNV-1" source="yXsciE9tfuoRTuWKtd9Q-51" target="yXsciE9tfuoRTuWKtd9Q-40" edge="1">
          <mxGeometry relative="1" as="geometry" />
        </mxCell>
        <mxCell id="yXsciE9tfuoRTuWKtd9Q-51" value="name" style="ellipse;whiteSpace=wrap;html=1;labelBackgroundColor=#FFFFFF;" parent="WIyWlLk6GJQsqaUBKTNV-1" vertex="1">
          <mxGeometry x="29" y="720" width="60" height="30" as="geometry" />
        </mxCell>
        <mxCell id="yXsciE9tfuoRTuWKtd9Q-56" style="edgeStyle=orthogonalEdgeStyle;rounded=0;orthogonalLoop=1;jettySize=auto;html=1;entryX=0;entryY=0.5;entryDx=0;entryDy=0;endArrow=none;endFill=0;" parent="WIyWlLk6GJQsqaUBKTNV-1" source="yXsciE9tfuoRTuWKtd9Q-53" target="yXsciE9tfuoRTuWKtd9Q-55" edge="1">
          <mxGeometry relative="1" as="geometry" />
        </mxCell>
        <mxCell id="yXsciE9tfuoRTuWKtd9Q-64" style="edgeStyle=orthogonalEdgeStyle;rounded=0;orthogonalLoop=1;jettySize=auto;html=1;entryX=0.5;entryY=0;entryDx=0;entryDy=0;endArrow=none;endFill=0;" parent="WIyWlLk6GJQsqaUBKTNV-1" source="yXsciE9tfuoRTuWKtd9Q-53" target="yXsciE9tfuoRTuWKtd9Q-62" edge="1">
          <mxGeometry relative="1" as="geometry" />
        </mxCell>
        <mxCell id="yXsciE9tfuoRTuWKtd9Q-53" value="player" style="rounded=0;whiteSpace=wrap;html=1;sketch=0;shadow=0;glass=0;" parent="WIyWlLk6GJQsqaUBKTNV-1" vertex="1">
          <mxGeometry x="50" y="50" width="70" height="40" as="geometry" />
        </mxCell>
        <mxCell id="yXsciE9tfuoRTuWKtd9Q-61" style="edgeStyle=orthogonalEdgeStyle;rounded=0;orthogonalLoop=1;jettySize=auto;html=1;entryX=0.5;entryY=1;entryDx=0;entryDy=0;endArrow=none;endFill=0;" parent="WIyWlLk6GJQsqaUBKTNV-1" source="yXsciE9tfuoRTuWKtd9Q-54" target="yXsciE9tfuoRTuWKtd9Q-60" edge="1">
          <mxGeometry relative="1" as="geometry" />
        </mxCell>
        <mxCell id="yXsciE9tfuoRTuWKtd9Q-54" value="team" style="rounded=0;whiteSpace=wrap;html=1;" parent="WIyWlLk6GJQsqaUBKTNV-1" vertex="1">
          <mxGeometry x="277.5" y="50" width="70" height="40" as="geometry" />
        </mxCell>
        <mxCell id="yXsciE9tfuoRTuWKtd9Q-57" style="edgeStyle=orthogonalEdgeStyle;rounded=0;orthogonalLoop=1;jettySize=auto;html=1;entryX=0;entryY=0.5;entryDx=0;entryDy=0;endArrow=none;endFill=0;" parent="WIyWlLk6GJQsqaUBKTNV-1" source="yXsciE9tfuoRTuWKtd9Q-55" target="yXsciE9tfuoRTuWKtd9Q-54" edge="1">
          <mxGeometry relative="1" as="geometry" />
        </mxCell>
        <mxCell id="yXsciE9tfuoRTuWKtd9Q-55" value="plays in" style="rhombus;whiteSpace=wrap;html=1;labelBackgroundColor=#FFFFFF;" parent="WIyWlLk6GJQsqaUBKTNV-1" vertex="1">
          <mxGeometry x="170" y="50" width="60" height="40" as="geometry" />
        </mxCell>
        <mxCell id="yXsciE9tfuoRTuWKtd9Q-59" style="edgeStyle=orthogonalEdgeStyle;rounded=0;orthogonalLoop=1;jettySize=auto;html=1;entryX=0.5;entryY=1;entryDx=0;entryDy=0;endArrow=none;endFill=0;" parent="WIyWlLk6GJQsqaUBKTNV-1" source="yXsciE9tfuoRTuWKtd9Q-58" target="yXsciE9tfuoRTuWKtd9Q-53" edge="1">
          <mxGeometry relative="1" as="geometry" />
        </mxCell>
        <mxCell id="yXsciE9tfuoRTuWKtd9Q-58" value="name" style="ellipse;whiteSpace=wrap;html=1;labelBackgroundColor=#FFFFFF;" parent="WIyWlLk6GJQsqaUBKTNV-1" vertex="1">
          <mxGeometry x="20" y="120" width="50" height="30" as="geometry" />
        </mxCell>
        <mxCell id="yXsciE9tfuoRTuWKtd9Q-60" value="&lt;u&gt;name&lt;/u&gt;" style="ellipse;whiteSpace=wrap;html=1;labelBackgroundColor=#FFFFFF;" parent="WIyWlLk6GJQsqaUBKTNV-1" vertex="1">
          <mxGeometry x="287.5" width="50" height="30" as="geometry" />
        </mxCell>
        <mxCell id="yXsciE9tfuoRTuWKtd9Q-62" value="&lt;u&gt;number&lt;/u&gt;" style="ellipse;whiteSpace=wrap;html=1;labelBackgroundColor=#FFFFFF;" parent="WIyWlLk6GJQsqaUBKTNV-1" vertex="1">
          <mxGeometry x="95" y="120" width="50" height="30" as="geometry" />
        </mxCell>
        <mxCell id="yXsciE9tfuoRTuWKtd9Q-69" style="edgeStyle=orthogonalEdgeStyle;rounded=0;orthogonalLoop=1;jettySize=auto;html=1;entryX=0;entryY=0.5;entryDx=0;entryDy=0;endArrow=none;endFill=0;" parent="WIyWlLk6GJQsqaUBKTNV-1" source="yXsciE9tfuoRTuWKtd9Q-67" target="yXsciE9tfuoRTuWKtd9Q-68" edge="1">
          <mxGeometry relative="1" as="geometry" />
        </mxCell>
        <mxCell id="yXsciE9tfuoRTuWKtd9Q-67" value="student" style="rounded=0;whiteSpace=wrap;html=1;" parent="WIyWlLk6GJQsqaUBKTNV-1" vertex="1">
          <mxGeometry x="24" y="850" width="70" height="40" as="geometry" />
        </mxCell>
        <mxCell id="yXsciE9tfuoRTuWKtd9Q-71" style="edgeStyle=orthogonalEdgeStyle;rounded=0;orthogonalLoop=1;jettySize=auto;html=1;entryX=0;entryY=0.5;entryDx=0;entryDy=0;endArrow=none;endFill=0;" parent="WIyWlLk6GJQsqaUBKTNV-1" source="yXsciE9tfuoRTuWKtd9Q-68" target="yXsciE9tfuoRTuWKtd9Q-70" edge="1">
          <mxGeometry relative="1" as="geometry" />
        </mxCell>
        <mxCell id="yXsciE9tfuoRTuWKtd9Q-68" value="Enroll" style="rhombus;whiteSpace=wrap;html=1;" parent="WIyWlLk6GJQsqaUBKTNV-1" vertex="1">
          <mxGeometry x="149" y="845" width="60" height="50" as="geometry" />
        </mxCell>
        <mxCell id="yXsciE9tfuoRTuWKtd9Q-74" style="edgeStyle=orthogonalEdgeStyle;rounded=0;orthogonalLoop=1;jettySize=auto;html=1;entryX=0.5;entryY=0;entryDx=0;entryDy=0;endArrow=none;endFill=0;" parent="WIyWlLk6GJQsqaUBKTNV-1" source="yXsciE9tfuoRTuWKtd9Q-70" target="yXsciE9tfuoRTuWKtd9Q-72" edge="1">
          <mxGeometry relative="1" as="geometry" />
        </mxCell>
        <mxCell id="yXsciE9tfuoRTuWKtd9Q-82" style="edgeStyle=orthogonalEdgeStyle;rounded=0;orthogonalLoop=1;jettySize=auto;html=1;entryX=0.5;entryY=1;entryDx=0;entryDy=0;endArrow=none;endFill=0;" parent="WIyWlLk6GJQsqaUBKTNV-1" source="yXsciE9tfuoRTuWKtd9Q-70" target="yXsciE9tfuoRTuWKtd9Q-78" edge="1">
          <mxGeometry relative="1" as="geometry" />
        </mxCell>
        <mxCell id="yXsciE9tfuoRTuWKtd9Q-70" value="courses" style="rounded=0;whiteSpace=wrap;html=1;" parent="WIyWlLk6GJQsqaUBKTNV-1" vertex="1">
          <mxGeometry x="253" y="850" width="86" height="40" as="geometry" />
        </mxCell>
        <mxCell id="yXsciE9tfuoRTuWKtd9Q-75" style="edgeStyle=orthogonalEdgeStyle;rounded=0;orthogonalLoop=1;jettySize=auto;html=1;entryX=0.5;entryY=0;entryDx=0;entryDy=0;endArrow=none;endFill=0;" parent="WIyWlLk6GJQsqaUBKTNV-1" source="yXsciE9tfuoRTuWKtd9Q-72" target="yXsciE9tfuoRTuWKtd9Q-73" edge="1">
          <mxGeometry relative="1" as="geometry" />
        </mxCell>
        <mxCell id="yXsciE9tfuoRTuWKtd9Q-72" value="have" style="rhombus;whiteSpace=wrap;html=1;" parent="WIyWlLk6GJQsqaUBKTNV-1" vertex="1">
          <mxGeometry x="266" y="910" width="60" height="50" as="geometry" />
        </mxCell>
        <mxCell id="yXsciE9tfuoRTuWKtd9Q-86" style="edgeStyle=orthogonalEdgeStyle;rounded=0;orthogonalLoop=1;jettySize=auto;html=1;entryX=0;entryY=0.5;entryDx=0;entryDy=0;endArrow=none;endFill=0;" parent="WIyWlLk6GJQsqaUBKTNV-1" source="yXsciE9tfuoRTuWKtd9Q-73" target="yXsciE9tfuoRTuWKtd9Q-83" edge="1">
          <mxGeometry relative="1" as="geometry" />
        </mxCell>
        <mxCell id="yXsciE9tfuoRTuWKtd9Q-87" style="edgeStyle=orthogonalEdgeStyle;rounded=0;orthogonalLoop=1;jettySize=auto;html=1;entryX=0.5;entryY=0;entryDx=0;entryDy=0;endArrow=none;endFill=0;" parent="WIyWlLk6GJQsqaUBKTNV-1" source="yXsciE9tfuoRTuWKtd9Q-73" target="yXsciE9tfuoRTuWKtd9Q-84" edge="1">
          <mxGeometry relative="1" as="geometry" />
        </mxCell>
        <mxCell id="yXsciE9tfuoRTuWKtd9Q-88" style="edgeStyle=orthogonalEdgeStyle;rounded=0;orthogonalLoop=1;jettySize=auto;html=1;entryX=1;entryY=0.5;entryDx=0;entryDy=0;endArrow=none;endFill=0;" parent="WIyWlLk6GJQsqaUBKTNV-1" source="yXsciE9tfuoRTuWKtd9Q-73" target="yXsciE9tfuoRTuWKtd9Q-85" edge="1">
          <mxGeometry relative="1" as="geometry" />
        </mxCell>
        <mxCell id="yXsciE9tfuoRTuWKtd9Q-73" value="TA" style="rounded=0;whiteSpace=wrap;html=1;" parent="WIyWlLk6GJQsqaUBKTNV-1" vertex="1">
          <mxGeometry x="261" y="990" width="70" height="40" as="geometry" />
        </mxCell>
        <mxCell id="yXsciE9tfuoRTuWKtd9Q-80" style="edgeStyle=orthogonalEdgeStyle;rounded=0;orthogonalLoop=1;jettySize=auto;html=1;entryX=0.5;entryY=0;entryDx=0;entryDy=0;endArrow=none;endFill=0;" parent="WIyWlLk6GJQsqaUBKTNV-1" source="yXsciE9tfuoRTuWKtd9Q-76" target="yXsciE9tfuoRTuWKtd9Q-70" edge="1">
          <mxGeometry relative="1" as="geometry" />
        </mxCell>
        <mxCell id="yXsciE9tfuoRTuWKtd9Q-76" value="&lt;u&gt;CourseID&lt;/u&gt;" style="ellipse;whiteSpace=wrap;html=1;" parent="WIyWlLk6GJQsqaUBKTNV-1" vertex="1">
          <mxGeometry x="266" y="780" width="60" height="40" as="geometry" />
        </mxCell>
        <mxCell id="yXsciE9tfuoRTuWKtd9Q-78" value="CName" style="ellipse;whiteSpace=wrap;html=1;" parent="WIyWlLk6GJQsqaUBKTNV-1" vertex="1">
          <mxGeometry x="354" y="780" width="60" height="40" as="geometry" />
        </mxCell>
        <mxCell id="yXsciE9tfuoRTuWKtd9Q-83" value="&lt;u&gt;TAID&lt;/u&gt;" style="ellipse;whiteSpace=wrap;html=1;" parent="WIyWlLk6GJQsqaUBKTNV-1" vertex="1">
          <mxGeometry x="372.5" y="990" width="60" height="40" as="geometry" />
        </mxCell>
        <mxCell id="yXsciE9tfuoRTuWKtd9Q-84" value="TAName" style="ellipse;whiteSpace=wrap;html=1;" parent="WIyWlLk6GJQsqaUBKTNV-1" vertex="1">
          <mxGeometry x="266" y="1070" width="60" height="40" as="geometry" />
        </mxCell>
        <mxCell id="yXsciE9tfuoRTuWKtd9Q-85" value="&lt;u&gt;TAMail&lt;/u&gt;" style="ellipse;whiteSpace=wrap;html=1;" parent="WIyWlLk6GJQsqaUBKTNV-1" vertex="1">
          <mxGeometry x="160" y="990" width="60" height="40" as="geometry" />
        </mxCell>
      </root>
    </mxGraphModel>
  </diagram>
  <diagram id="V5xhIK37WoMa2QNEDLFq" name="Page-2">
    <mxGraphModel dx="526" dy="354" grid="1" gridSize="10" guides="1" tooltips="1" connect="1" arrows="1" fold="1" page="1" pageScale="1" pageWidth="850" pageHeight="1100" math="0" shadow="0">
      <root>
        <mxCell id="XkFVcaEG5qPiDDkoQv0D-0" />
        <mxCell id="XkFVcaEG5qPiDDkoQv0D-1" parent="XkFVcaEG5qPiDDkoQv0D-0" />
        <mxCell id="XkFVcaEG5qPiDDkoQv0D-16" style="edgeStyle=orthogonalEdgeStyle;rounded=0;orthogonalLoop=1;jettySize=auto;html=1;entryX=0.5;entryY=1;entryDx=0;entryDy=0;endArrow=none;endFill=0;" edge="1" parent="XkFVcaEG5qPiDDkoQv0D-1" source="XkFVcaEG5qPiDDkoQv0D-8">
          <mxGeometry relative="1" as="geometry">
            <mxPoint x="85" y="50" as="targetPoint" />
          </mxGeometry>
        </mxCell>
        <mxCell id="XkFVcaEG5qPiDDkoQv0D-28" style="edgeStyle=orthogonalEdgeStyle;rounded=0;orthogonalLoop=1;jettySize=auto;html=1;exitX=1;exitY=0.5;exitDx=0;exitDy=0;entryX=0;entryY=0.5;entryDx=0;entryDy=0;startArrow=none;startFill=0;endArrow=none;endFill=0;" edge="1" parent="XkFVcaEG5qPiDDkoQv0D-1" source="XkFVcaEG5qPiDDkoQv0D-8" target="XkFVcaEG5qPiDDkoQv0D-14">
          <mxGeometry relative="1" as="geometry" />
        </mxCell>
        <mxCell id="XkFVcaEG5qPiDDkoQv0D-8" value="person" style="rounded=0;whiteSpace=wrap;html=1;fillColor=#f8cecc;strokeColor=#b85450;" vertex="1" parent="XkFVcaEG5qPiDDkoQv0D-1">
          <mxGeometry x="80" y="95" width="80" height="30" as="geometry" />
        </mxCell>
        <mxCell id="XkFVcaEG5qPiDDkoQv0D-37" style="edgeStyle=orthogonalEdgeStyle;rounded=0;orthogonalLoop=1;jettySize=auto;html=1;entryX=0.5;entryY=1;entryDx=0;entryDy=0;startArrow=none;startFill=0;endArrow=none;endFill=0;" edge="1" parent="XkFVcaEG5qPiDDkoQv0D-1" source="XkFVcaEG5qPiDDkoQv0D-9" target="XkFVcaEG5qPiDDkoQv0D-11">
          <mxGeometry relative="1" as="geometry" />
        </mxCell>
        <mxCell id="XkFVcaEG5qPiDDkoQv0D-9" value="learner&#39;s exam" style="rounded=0;whiteSpace=wrap;html=1;fillColor=#f8cecc;strokeColor=#b85450;" vertex="1" parent="XkFVcaEG5qPiDDkoQv0D-1">
          <mxGeometry x="300" y="95" width="80" height="30" as="geometry" />
        </mxCell>
        <mxCell id="XkFVcaEG5qPiDDkoQv0D-11" value="date" style="ellipse;whiteSpace=wrap;html=1;fillColor=#f5f5f5;strokeColor=#666666;fontColor=#333333;" vertex="1" parent="XkFVcaEG5qPiDDkoQv0D-1">
          <mxGeometry x="305" y="30" width="70" height="30" as="geometry" />
        </mxCell>
        <mxCell id="XkFVcaEG5qPiDDkoQv0D-22" style="edgeStyle=orthogonalEdgeStyle;rounded=0;orthogonalLoop=1;jettySize=auto;html=1;entryX=0.75;entryY=0;entryDx=0;entryDy=0;startArrow=none;startFill=0;endArrow=none;endFill=0;" edge="1" parent="XkFVcaEG5qPiDDkoQv0D-1" source="XkFVcaEG5qPiDDkoQv0D-12" target="XkFVcaEG5qPiDDkoQv0D-8">
          <mxGeometry relative="1" as="geometry" />
        </mxCell>
        <mxCell id="XkFVcaEG5qPiDDkoQv0D-12" value="&lt;u&gt;ID&lt;/u&gt;" style="ellipse;whiteSpace=wrap;html=1;fillColor=#f5f5f5;strokeColor=#666666;fontColor=#333333;" vertex="1" parent="XkFVcaEG5qPiDDkoQv0D-1">
          <mxGeometry x="130" y="20" width="70" height="30" as="geometry" />
        </mxCell>
        <mxCell id="XkFVcaEG5qPiDDkoQv0D-29" style="edgeStyle=orthogonalEdgeStyle;rounded=0;orthogonalLoop=1;jettySize=auto;html=1;exitX=1;exitY=0.5;exitDx=0;exitDy=0;entryX=0;entryY=0.5;entryDx=0;entryDy=0;startArrow=none;startFill=0;endArrow=none;endFill=0;" edge="1" parent="XkFVcaEG5qPiDDkoQv0D-1" source="XkFVcaEG5qPiDDkoQv0D-14" target="XkFVcaEG5qPiDDkoQv0D-9">
          <mxGeometry relative="1" as="geometry" />
        </mxCell>
        <mxCell id="XkFVcaEG5qPiDDkoQv0D-14" value="takes" style="rhombus;whiteSpace=wrap;html=1;fillColor=#fff2cc;strokeColor=#d6b656;" vertex="1" parent="XkFVcaEG5qPiDDkoQv0D-1">
          <mxGeometry x="200" y="90" width="70" height="40" as="geometry" />
        </mxCell>
        <mxCell id="XkFVcaEG5qPiDDkoQv0D-32" style="edgeStyle=orthogonalEdgeStyle;rounded=0;orthogonalLoop=1;jettySize=auto;html=1;entryX=1;entryY=0.5;entryDx=0;entryDy=0;startArrow=none;startFill=0;endArrow=none;endFill=0;" edge="1" parent="XkFVcaEG5qPiDDkoQv0D-1" source="XkFVcaEG5qPiDDkoQv0D-31" target="XkFVcaEG5qPiDDkoQv0D-9">
          <mxGeometry relative="1" as="geometry" />
        </mxCell>
        <mxCell id="XkFVcaEG5qPiDDkoQv0D-33" style="edgeStyle=orthogonalEdgeStyle;rounded=0;orthogonalLoop=1;jettySize=auto;html=1;startArrow=none;startFill=0;endArrow=none;endFill=0;" edge="1" parent="XkFVcaEG5qPiDDkoQv0D-1" source="XkFVcaEG5qPiDDkoQv0D-31" target="XkFVcaEG5qPiDDkoQv0D-34">
          <mxGeometry relative="1" as="geometry">
            <mxPoint x="510" y="110" as="targetPoint" />
          </mxGeometry>
        </mxCell>
        <mxCell id="XkFVcaEG5qPiDDkoQv0D-31" value="succied" style="rhombus;whiteSpace=wrap;html=1;fillColor=#fff2cc;strokeColor=#d6b656;" vertex="1" parent="XkFVcaEG5qPiDDkoQv0D-1">
          <mxGeometry x="410" y="90" width="55" height="40" as="geometry" />
        </mxCell>
        <mxCell id="XkFVcaEG5qPiDDkoQv0D-35" style="edgeStyle=orthogonalEdgeStyle;rounded=0;orthogonalLoop=1;jettySize=auto;html=1;startArrow=none;startFill=0;endArrow=none;endFill=0;" edge="1" parent="XkFVcaEG5qPiDDkoQv0D-1" source="XkFVcaEG5qPiDDkoQv0D-34" target="XkFVcaEG5qPiDDkoQv0D-36">
          <mxGeometry relative="1" as="geometry">
            <mxPoint x="520" y="60" as="targetPoint" />
          </mxGeometry>
        </mxCell>
        <mxCell id="XkFVcaEG5qPiDDkoQv0D-41" style="edgeStyle=orthogonalEdgeStyle;rounded=0;orthogonalLoop=1;jettySize=auto;html=1;entryX=0.5;entryY=0;entryDx=0;entryDy=0;startArrow=none;startFill=0;endArrow=none;endFill=0;" edge="1" parent="XkFVcaEG5qPiDDkoQv0D-1" source="XkFVcaEG5qPiDDkoQv0D-34" target="XkFVcaEG5qPiDDkoQv0D-40">
          <mxGeometry relative="1" as="geometry" />
        </mxCell>
        <mxCell id="XkFVcaEG5qPiDDkoQv0D-34" value="&lt;span&gt;driver&#39;s licence&lt;/span&gt;" style="rounded=0;whiteSpace=wrap;html=1;fillColor=#f8cecc;strokeColor=#b85450;" vertex="1" parent="XkFVcaEG5qPiDDkoQv0D-1">
          <mxGeometry x="490" y="95" width="60" height="30" as="geometry" />
        </mxCell>
        <mxCell id="XkFVcaEG5qPiDDkoQv0D-36" value="&lt;u&gt;LicenceNumber&lt;/u&gt;" style="ellipse;whiteSpace=wrap;html=1;fillColor=#f5f5f5;strokeColor=#666666;fontColor=#333333;" vertex="1" parent="XkFVcaEG5qPiDDkoQv0D-1">
          <mxGeometry x="475" y="30" width="90" height="30" as="geometry" />
        </mxCell>
        <mxCell id="XkFVcaEG5qPiDDkoQv0D-39" style="edgeStyle=orthogonalEdgeStyle;rounded=0;orthogonalLoop=1;jettySize=auto;html=1;entryX=0.5;entryY=1;entryDx=0;entryDy=0;startArrow=none;startFill=0;endArrow=none;endFill=0;" edge="1" parent="XkFVcaEG5qPiDDkoQv0D-1" source="XkFVcaEG5qPiDDkoQv0D-38" target="XkFVcaEG5qPiDDkoQv0D-8">
          <mxGeometry relative="1" as="geometry" />
        </mxCell>
        <mxCell id="XkFVcaEG5qPiDDkoQv0D-38" value="IQ" style="ellipse;whiteSpace=wrap;html=1;fillColor=#f5f5f5;strokeColor=#666666;fontColor=#333333;" vertex="1" parent="XkFVcaEG5qPiDDkoQv0D-1">
          <mxGeometry x="90" y="150" width="60" height="20" as="geometry" />
        </mxCell>
        <mxCell id="XkFVcaEG5qPiDDkoQv0D-40" value="Certificate" style="ellipse;whiteSpace=wrap;html=1;fillColor=#f5f5f5;strokeColor=#666666;fontColor=#333333;" vertex="1" parent="XkFVcaEG5qPiDDkoQv0D-1">
          <mxGeometry x="475" y="150" width="90" height="30" as="geometry" />
        </mxCell>
        <mxCell id="XkFVcaEG5qPiDDkoQv0D-70" value="name" style="ellipse;whiteSpace=wrap;html=1;fillColor=#f5f5f5;strokeColor=#666666;fontColor=#333333;" vertex="1" parent="XkFVcaEG5qPiDDkoQv0D-1">
          <mxGeometry x="50" y="20" width="70" height="30" as="geometry" />
        </mxCell>
      </root>
    </mxGraphModel>
  </diagram>
</mxfile>
